<?xml version="1.0" encoding="UTF-8"?>
<svg xmlns="http://www.w3.org/2000/svg" width="964" height="556" viewBox="0 0 964 556">
<title>Harbor Concourse Drill evacuation heatmap</title>
<rect width="100%" height="100%" fill="#0c1220"/>
<text x="74" y="38" fill="#f4f7ff" font-family="system-ui" font-size="22">Harbor Concourse Drill — visit heat</text>
<rect x="74" y="74" width="33" height="33" fill="#202b3d" rx="3"/>
<rect x="108" y="74" width="33" height="33" fill="#202b3d" rx="3"/>
<rect x="142" y="74" width="33" height="33" fill="#202b3d" rx="3"/>
<rect x="176" y="74" width="33" height="33" fill="#202b3d" rx="3"/>
<rect x="210" y="74" width="33" height="33" fill="#202b3d" rx="3"/>
<rect x="244" y="74" width="33" height="33" fill="#202b3d" rx="3"/>
<rect x="278" y="74" width="33" height="33" fill="#202b3d" rx="3"/>
<rect x="312" y="74" width="33" height="33" fill="#202b3d" rx="3"/>
<rect x="346" y="74" width="33" height="33" fill="#202b3d" rx="3"/>
<rect x="380" y="74" width="33" height="33" fill="#202b3d" rx="3"/>
<rect x="414" y="74" width="33" height="33" fill="#202b3d" rx="3"/>
<rect x="448" y="74" width="33" height="33" fill="#202b3d" rx="3"/>
<rect x="482" y="74" width="33" height="33" fill="#202b3d" rx="3"/>
<rect x="516" y="74" width="33" height="33" fill="#202b3d" rx="3"/>
<rect x="550" y="74" width="33" height="33" fill="#202b3d" rx="3"/>
<rect x="584" y="74" width="33" height="33" fill="#202b3d" rx="3"/>
<rect x="618" y="74" width="33" height="33" fill="#202b3d" rx="3"/>
<rect x="652" y="74" width="33" height="33" fill="#202b3d" rx="3"/>
<rect x="686" y="74" width="33" height="33" fill="#202b3d" rx="3"/>
<rect x="720" y="74" width="33" height="33" fill="#202b3d" rx="3"/>
<rect x="754" y="74" width="33" height="33" fill="#202b3d" rx="3"/>
<rect x="788" y="74" width="33" height="33" fill="#202b3d" rx="3"/>
<rect x="822" y="74" width="33" height="33" fill="#202b3d" rx="3"/>
<rect x="856" y="74" width="33" height="33" fill="#202b3d" rx="3"/>
<rect x="74" y="108" width="33" height="33" fill="#202b3d" rx="3"/>
<rect x="108" y="108" width="33" height="33" fill="rgb(57,138,194)" rx="3"/>
<rect x="142" y="108" width="33" height="33" fill="rgb(57,138,194)" rx="3"/>
<rect x="176" y="108" width="33" height="33" fill="rgb(57,138,194)" rx="3"/>
<rect x="210" y="108" width="33" height="33" fill="rgb(57,138,194)" rx="3"/>
<rect x="244" y="108" width="33" height="33" fill="rgb(57,138,194)" rx="3"/>
<rect x="278" y="108" width="33" height="33" fill="rgb(57,138,194)" rx="3"/>
<rect x="312" y="108" width="33" height="33" fill="#202b3d" rx="3"/>
<rect x="346" y="108" width="33" height="33" fill="rgb(96,123,177)" rx="3"/>
<rect x="380" y="108" width="33" height="33" fill="rgb(116,115,169)" rx="3"/>
<rect x="414" y="108" width="33" height="33" fill="rgb(116,115,169)" rx="3"/>
<rect x="448" y="108" width="33" height="33" fill="rgb(135,108,161)" rx="3"/>
<rect x="482" y="108" width="33" height="33" fill="rgb(155,100,153)" rx="3"/>
<rect x="516" y="108" width="33" height="33" fill="rgb(174,93,145)" rx="3"/>
<rect x="550" y="108" width="33" height="33" fill="rgb(194,85,137)" rx="3"/>
<rect x="584" y="108" width="33" height="33" fill="rgb(194,85,137)" rx="3"/>
<rect x="618" y="108" width="33" height="33" fill="rgb(194,85,137)" rx="3"/>
<rect x="652" y="108" width="33" height="33" fill="rgb(194,85,137)" rx="3"/>
<rect x="686" y="108" width="33" height="33" fill="#39d98a" rx="3"/>
<text x="703.0" y="131.1" text-anchor="middle" fill="#071018" font-family="monospace" font-weight="bold">E</text>
<rect x="720" y="108" width="33" height="33" fill="rgb(38,145,202)" rx="3"/>
<rect x="754" y="108" width="33" height="33" fill="rgb(38,145,202)" rx="3"/>
<rect x="788" y="108" width="33" height="33" fill="rgb(38,145,202)" rx="3"/>
<rect x="822" y="108" width="33" height="33" fill="rgb(38,145,202)" rx="3"/>
<rect x="856" y="108" width="33" height="33" fill="#202b3d" rx="3"/>
<rect x="74" y="142" width="33" height="33" fill="#202b3d" rx="3"/>
<rect x="108" y="142" width="33" height="33" fill="rgb(57,138,194)" rx="3"/>
<rect x="142" y="142" width="33" height="33" fill="rgb(77,130,186)" rx="3"/>
<rect x="176" y="142" width="33" height="33" fill="rgb(77,130,186)" rx="3"/>
<rect x="210" y="142" width="33" height="33" fill="rgb(77,130,186)" rx="3"/>
<rect x="244" y="142" width="33" height="33" fill="rgb(96,123,177)" rx="3"/>
<rect x="278" y="142" width="33" height="33" fill="rgb(116,115,169)" rx="3"/>
<rect x="312" y="142" width="33" height="33" fill="#202b3d" rx="3"/>
<rect x="346" y="142" width="33" height="33" fill="rgb(96,123,177)" rx="3"/>
<rect x="380" y="142" width="33" height="33" fill="rgb(174,93,145)" rx="3"/>
<rect x="414" y="142" width="33" height="33" fill="rgb(155,100,153)" rx="3"/>
<rect x="448" y="142" width="33" height="33" fill="rgb(155,100,153)" rx="3"/>
<rect x="482" y="142" width="33" height="33" fill="rgb(135,108,161)" rx="3"/>
<rect x="516" y="142" width="33" height="33" fill="rgb(116,115,169)" rx="3"/>
<rect x="550" y="142" width="33" height="33" fill="rgb(96,123,177)" rx="3"/>
<rect x="584" y="142" width="33" height="33" fill="rgb(77,130,186)" rx="3"/>
<rect x="618" y="142" width="33" height="33" fill="rgb(77,130,186)" rx="3"/>
<rect x="652" y="142" width="33" height="33" fill="rgb(77,130,186)" rx="3"/>
<rect x="686" y="142" width="33" height="33" fill="rgb(77,130,186)" rx="3"/>
<rect x="720" y="142" width="33" height="33" fill="rgb(38,145,202)" rx="3"/>
<rect x="754" y="142" width="33" height="33" fill="rgb(38,145,202)" rx="3"/>
<rect x="788" y="142" width="33" height="33" fill="rgb(38,145,202)" rx="3"/>
<rect x="822" y="142" width="33" height="33" fill="rgb(38,145,202)" rx="3"/>
<rect x="856" y="142" width="33" height="33" fill="#202b3d" rx="3"/>
<rect x="74" y="176" width="33" height="33" fill="#202b3d" rx="3"/>
<rect x="108" y="176" width="33" height="33" fill="rgb(38,145,202)" rx="3"/>
<rect x="142" y="176" width="33" height="33" fill="rgb(57,138,194)" rx="3"/>
<rect x="176" y="176" width="33" height="33" fill="rgb(77,130,186)" rx="3"/>
<rect x="210" y="176" width="33" height="33" fill="rgb(77,130,186)" rx="3"/>
<rect x="244" y="176" width="33" height="33" fill="rgb(77,130,186)" rx="3"/>
<rect x="278" y="176" width="33" height="33" fill="rgb(135,108,161)" rx="3"/>
<rect x="312" y="176" width="33" height="33" fill="#202b3d" rx="3"/>
<rect x="346" y="176" width="33" height="33" fill="rgb(96,123,177)" rx="3"/>
<rect x="380" y="176" width="33" height="33" fill="rgb(174,93,145)" rx="3"/>
<rect x="414" y="176" width="33" height="33" fill="#202b3d" rx="3"/>
<rect x="448" y="176" width="33" height="33" fill="#202b3d" rx="3"/>
<rect x="482" y="176" width="33" height="33" fill="#202b3d" rx="3"/>
<rect x="516" y="176" width="33" height="33" fill="#202b3d" rx="3"/>
<rect x="550" y="176" width="33" height="33" fill="#202b3d" rx="3"/>
<rect x="584" y="176" width="33" height="33" fill="rgb(38,145,202)" rx="3"/>
<rect x="618" y="176" width="33" height="33" fill="rgb(38,145,202)" rx="3"/>
<rect x="652" y="176" width="33" height="33" fill="rgb(38,145,202)" rx="3"/>
<rect x="686" y="176" width="33" height="33" fill="rgb(38,145,202)" rx="3"/>
<rect x="720" y="176" width="33" height="33" fill="rgb(38,145,202)" rx="3"/>
<rect x="754" y="176" width="33" height="33" fill="rgb(38,145,202)" rx="3"/>
<rect x="788" y="176" width="33" height="33" fill="rgb(38,145,202)" rx="3"/>
<rect x="822" y="176" width="33" height="33" fill="rgb(38,145,202)" rx="3"/>
<rect x="856" y="176" width="33" height="33" fill="#202b3d" rx="3"/>
<rect x="74" y="210" width="33" height="33" fill="#202b3d" rx="3"/>
<rect x="108" y="210" width="33" height="33" fill="rgb(38,145,202)" rx="3"/>
<rect x="142" y="210" width="33" height="33" fill="rgb(57,138,194)" rx="3"/>
<rect x="176" y="210" width="33" height="33" fill="rgb(77,130,186)" rx="3"/>
<rect x="210" y="210" width="33" height="33" fill="rgb(96,123,177)" rx="3"/>
<rect x="244" y="210" width="33" height="33" fill="rgb(135,108,161)" rx="3"/>
<rect x="278" y="210" width="33" height="33" fill="rgb(252,63,112)" rx="3"/>
<rect x="312" y="210" width="33" height="33" fill="rgb(252,63,112)" rx="3"/>
<rect x="346" y="210" width="33" height="33" fill="rgb(233,70,120)" rx="3"/>
<rect x="380" y="210" width="33" height="33" fill="rgb(174,93,145)" rx="3"/>
<rect x="414" y="210" width="33" height="33" fill="#202b3d" rx="3"/>
<rect x="448" y="210" width="33" height="33" fill="rgb(38,145,202)" rx="3"/>
<rect x="482" y="210" width="33" height="33" fill="rgb(38,145,202)" rx="3"/>
<rect x="516" y="210" width="33" height="33" fill="rgb(38,145,202)" rx="3"/>
<rect x="550" y="210" width="33" height="33" fill="rgb(38,145,202)" rx="3"/>
<rect x="584" y="210" width="33" height="33" fill="rgb(38,145,202)" rx="3"/>
<rect x="618" y="210" width="33" height="33" fill="rgb(38,145,202)" rx="3"/>
<rect x="652" y="210" width="33" height="33" fill="rgb(38,145,202)" rx="3"/>
<rect x="686" y="210" width="33" height="33" fill="rgb(38,145,202)" rx="3"/>
<rect x="720" y="210" width="33" height="33" fill="rgb(38,145,202)" rx="3"/>
<rect x="754" y="210" width="33" height="33" fill="rgb(38,145,202)" rx="3"/>
<rect x="788" y="210" width="33" height="33" fill="rgb(38,145,202)" rx="3"/>
<rect x="822" y="210" width="33" height="33" fill="rgb(38,145,202)" rx="3"/>
<rect x="856" y="210" width="33" height="33" fill="#202b3d" rx="3"/>
<rect x="74" y="244" width="33" height="33" fill="#202b3d" rx="3"/>
<rect x="108" y="244" width="33" height="33" fill="rgb(38,145,202)" rx="3"/>
<rect x="142" y="244" width="33" height="33" fill="rgb(38,145,202)" rx="3"/>
<rect x="176" y="244" width="33" height="33" fill="#202b3d" rx="3"/>
<rect x="210" y="244" width="33" height="33" fill="#202b3d" rx="3"/>
<rect x="244" y="244" width="33" height="33" fill="#202b3d" rx="3"/>
<rect x="278" y="244" width="33" height="33" fill="#202b3d" rx="3"/>
<rect x="312" y="244" width="33" height="33" fill="rgb(57,138,194)" rx="3"/>
<rect x="346" y="244" width="33" height="33" fill="rgb(77,130,186)" rx="3"/>
<rect x="380" y="244" width="33" height="33" fill="rgb(96,123,177)" rx="3"/>
<rect x="414" y="244" width="33" height="33" fill="#202b3d" rx="3"/>
<rect x="448" y="244" width="33" height="33" fill="rgb(38,145,202)" rx="3"/>
<rect x="482" y="244" width="33" height="33" fill="rgb(38,145,202)" rx="3"/>
<rect x="516" y="244" width="33" height="33" fill="#202b3d" rx="3"/>
<rect x="550" y="244" width="33" height="33" fill="#202b3d" rx="3"/>
<rect x="584" y="244" width="33" height="33" fill="#202b3d" rx="3"/>
<rect x="618" y="244" width="33" height="33" fill="#202b3d" rx="3"/>
<rect x="652" y="244" width="33" height="33" fill="#202b3d" rx="3"/>
<rect x="686" y="244" width="33" height="33" fill="rgb(38,145,202)" rx="3"/>
<rect x="720" y="244" width="33" height="33" fill="rgb(38,145,202)" rx="3"/>
<rect x="754" y="244" width="33" height="33" fill="rgb(38,145,202)" rx="3"/>
<rect x="788" y="244" width="33" height="33" fill="rgb(38,145,202)" rx="3"/>
<rect x="822" y="244" width="33" height="33" fill="rgb(38,145,202)" rx="3"/>
<rect x="856" y="244" width="33" height="33" fill="#202b3d" rx="3"/>
<rect x="74" y="278" width="33" height="33" fill="#202b3d" rx="3"/>
<rect x="108" y="278" width="33" height="33" fill="rgb(38,145,202)" rx="3"/>
<rect x="142" y="278" width="33" height="33" fill="rgb(38,145,202)" rx="3"/>
<rect x="176" y="278" width="33" height="33" fill="rgb(38,145,202)" rx="3"/>
<rect x="210" y="278" width="33" height="33" fill="rgb(38,145,202)" rx="3"/>
<rect x="244" y="278" width="33" height="33" fill="rgb(38,145,202)" rx="3"/>
<rect x="278" y="278" width="33" height="33" fill="rgb(38,145,202)" rx="3"/>
<rect x="312" y="278" width="33" height="33" fill="rgb(38,145,202)" rx="3"/>
<rect x="346" y="278" width="33" height="33" fill="rgb(38,145,202)" rx="3"/>
<rect x="380" y="278" width="33" height="33" fill="rgb(96,123,177)" rx="3"/>
<rect x="414" y="278" width="33" height="33" fill="#202b3d" rx="3"/>
<rect x="448" y="278" width="33" height="33" fill="rgb(38,145,202)" rx="3"/>
<rect x="482" y="278" width="33" height="33" fill="rgb(38,145,202)" rx="3"/>
<rect x="516" y="278" width="33" height="33" fill="rgb(38,145,202)" rx="3"/>
<rect x="550" y="278" width="33" height="33" fill="rgb(38,145,202)" rx="3"/>
<rect x="584" y="278" width="33" height="33" fill="rgb(38,145,202)" rx="3"/>
<rect x="618" y="278" width="33" height="33" fill="rgb(38,145,202)" rx="3"/>
<rect x="652" y="278" width="33" height="33" fill="rgb(38,145,202)" rx="3"/>
<rect x="686" y="278" width="33" height="33" fill="rgb(38,145,202)" rx="3"/>
<rect x="720" y="278" width="33" height="33" fill="rgb(38,145,202)" rx="3"/>
<rect x="754" y="278" width="33" height="33" fill="rgb(38,145,202)" rx="3"/>
<rect x="788" y="278" width="33" height="33" fill="rgb(38,145,202)" rx="3"/>
<rect x="822" y="278" width="33" height="33" fill="rgb(38,145,202)" rx="3"/>
<rect x="856" y="278" width="33" height="33" fill="#202b3d" rx="3"/>
<rect x="74" y="312" width="33" height="33" fill="#202b3d" rx="3"/>
<rect x="108" y="312" width="33" height="33" fill="rgb(38,145,202)" rx="3"/>
<rect x="142" y="312" width="33" height="33" fill="rgb(38,145,202)" rx="3"/>
<rect x="176" y="312" width="33" height="33" fill="rgb(38,145,202)" rx="3"/>
<rect x="210" y="312" width="33" height="33" fill="rgb(38,145,202)" rx="3"/>
<rect x="244" y="312" width="33" height="33" fill="#ff5c70" rx="3"/>
<text x="261.0" y="335.1" text-anchor="middle" fill="#071018" font-family="monospace" font-weight="bold">H</text>
<rect x="278" y="312" width="33" height="33" fill="rgb(38,145,202)" rx="3"/>
<rect x="312" y="312" width="33" height="33" fill="rgb(38,145,202)" rx="3"/>
<rect x="346" y="312" width="33" height="33" fill="rgb(38,145,202)" rx="3"/>
<rect x="380" y="312" width="33" height="33" fill="rgb(77,130,186)" rx="3"/>
<rect x="414" y="312" width="33" height="33" fill="#202b3d" rx="3"/>
<rect x="448" y="312" width="33" height="33" fill="rgb(38,145,202)" rx="3"/>
<rect x="482" y="312" width="33" height="33" fill="rgb(38,145,202)" rx="3"/>
<rect x="516" y="312" width="33" height="33" fill="rgb(38,145,202)" rx="3"/>
<rect x="550" y="312" width="33" height="33" fill="rgb(38,145,202)" rx="3"/>
<rect x="584" y="312" width="33" height="33" fill="rgb(38,145,202)" rx="3"/>
<rect x="618" y="312" width="33" height="33" fill="rgb(38,145,202)" rx="3"/>
<rect x="652" y="312" width="33" height="33" fill="rgb(38,145,202)" rx="3"/>
<rect x="686" y="312" width="33" height="33" fill="rgb(38,145,202)" rx="3"/>
<rect x="720" y="312" width="33" height="33" fill="rgb(38,145,202)" rx="3"/>
<rect x="754" y="312" width="33" height="33" fill="rgb(38,145,202)" rx="3"/>
<rect x="788" y="312" width="33" height="33" fill="rgb(38,145,202)" rx="3"/>
<rect x="822" y="312" width="33" height="33" fill="rgb(38,145,202)" rx="3"/>
<rect x="856" y="312" width="33" height="33" fill="#202b3d" rx="3"/>
<rect x="74" y="346" width="33" height="33" fill="#202b3d" rx="3"/>
<rect x="108" y="346" width="33" height="33" fill="rgb(38,145,202)" rx="3"/>
<rect x="142" y="346" width="33" height="33" fill="rgb(38,145,202)" rx="3"/>
<rect x="176" y="346" width="33" height="33" fill="rgb(38,145,202)" rx="3"/>
<rect x="210" y="346" width="33" height="33" fill="rgb(38,145,202)" rx="3"/>
<rect x="244" y="346" width="33" height="33" fill="rgb(38,145,202)" rx="3"/>
<rect x="278" y="346" width="33" height="33" fill="rgb(38,145,202)" rx="3"/>
<rect x="312" y="346" width="33" height="33" fill="rgb(38,145,202)" rx="3"/>
<rect x="346" y="346" width="33" height="33" fill="rgb(38,145,202)" rx="3"/>
<rect x="380" y="346" width="33" height="33" fill="rgb(57,138,194)" rx="3"/>
<rect x="414" y="346" width="33" height="33" fill="#202b3d" rx="3"/>
<rect x="448" y="346" width="33" height="33" fill="#202b3d" rx="3"/>
<rect x="482" y="346" width="33" height="33" fill="#202b3d" rx="3"/>
<rect x="516" y="346" width="33" height="33" fill="#202b3d" rx="3"/>
<rect x="550" y="346" width="33" height="33" fill="#202b3d" rx="3"/>
<rect x="584" y="346" width="33" height="33" fill="rgb(38,145,202)" rx="3"/>
<rect x="618" y="346" width="33" height="33" fill="rgb(38,145,202)" rx="3"/>
<rect x="652" y="346" width="33" height="33" fill="rgb(38,145,202)" rx="3"/>
<rect x="686" y="346" width="33" height="33" fill="rgb(38,145,202)" rx="3"/>
<rect x="720" y="346" width="33" height="33" fill="rgb(38,145,202)" rx="3"/>
<rect x="754" y="346" width="33" height="33" fill="rgb(38,145,202)" rx="3"/>
<rect x="788" y="346" width="33" height="33" fill="rgb(38,145,202)" rx="3"/>
<rect x="822" y="346" width="33" height="33" fill="rgb(38,145,202)" rx="3"/>
<rect x="856" y="346" width="33" height="33" fill="#202b3d" rx="3"/>
<rect x="74" y="380" width="33" height="33" fill="#202b3d" rx="3"/>
<rect x="108" y="380" width="33" height="33" fill="rgb(57,138,194)" rx="3"/>
<rect x="142" y="380" width="33" height="33" fill="rgb(77,130,186)" rx="3"/>
<rect x="176" y="380" width="33" height="33" fill="rgb(96,123,177)" rx="3"/>
<rect x="210" y="380" width="33" height="33" fill="rgb(116,115,169)" rx="3"/>
<rect x="244" y="380" width="33" height="33" fill="rgb(135,108,161)" rx="3"/>
<rect x="278" y="380" width="33" height="33" fill="rgb(135,108,161)" rx="3"/>
<rect x="312" y="380" width="33" height="33" fill="rgb(135,108,161)" rx="3"/>
<rect x="346" y="380" width="33" height="33" fill="rgb(135,108,161)" rx="3"/>
<rect x="380" y="380" width="33" height="33" fill="rgb(155,100,153)" rx="3"/>
<rect x="414" y="380" width="33" height="33" fill="rgb(135,108,161)" rx="3"/>
<rect x="448" y="380" width="33" height="33" fill="rgb(135,108,161)" rx="3"/>
<rect x="482" y="380" width="33" height="33" fill="rgb(135,108,161)" rx="3"/>
<rect x="516" y="380" width="33" height="33" fill="rgb(135,108,161)" rx="3"/>
<rect x="550" y="380" width="33" height="33" fill="rgb(135,108,161)" rx="3"/>
<rect x="584" y="380" width="33" height="33" fill="rgb(135,108,161)" rx="3"/>
<rect x="618" y="380" width="33" height="33" fill="rgb(135,108,161)" rx="3"/>
<rect x="652" y="380" width="33" height="33" fill="rgb(135,108,161)" rx="3"/>
<rect x="686" y="380" width="33" height="33" fill="rgb(135,108,161)" rx="3"/>
<rect x="720" y="380" width="33" height="33" fill="rgb(135,108,161)" rx="3"/>
<rect x="754" y="380" width="33" height="33" fill="rgb(135,108,161)" rx="3"/>
<rect x="788" y="380" width="33" height="33" fill="rgb(135,108,161)" rx="3"/>
<rect x="822" y="380" width="33" height="33" fill="#39d98a" rx="3"/>
<text x="839.0" y="403.1" text-anchor="middle" fill="#071018" font-family="monospace" font-weight="bold">E</text>
<rect x="856" y="380" width="33" height="33" fill="#202b3d" rx="3"/>
<rect x="74" y="414" width="33" height="33" fill="#202b3d" rx="3"/>
<rect x="108" y="414" width="33" height="33" fill="rgb(57,138,194)" rx="3"/>
<rect x="142" y="414" width="33" height="33" fill="rgb(57,138,194)" rx="3"/>
<rect x="176" y="414" width="33" height="33" fill="rgb(57,138,194)" rx="3"/>
<rect x="210" y="414" width="33" height="33" fill="rgb(57,138,194)" rx="3"/>
<rect x="244" y="414" width="33" height="33" fill="rgb(57,138,194)" rx="3"/>
<rect x="278" y="414" width="33" height="33" fill="rgb(57,138,194)" rx="3"/>
<rect x="312" y="414" width="33" height="33" fill="rgb(57,138,194)" rx="3"/>
<rect x="346" y="414" width="33" height="33" fill="rgb(57,138,194)" rx="3"/>
<rect x="380" y="414" width="33" height="33" fill="rgb(77,130,186)" rx="3"/>
<rect x="414" y="414" width="33" height="33" fill="rgb(77,130,186)" rx="3"/>
<rect x="448" y="414" width="33" height="33" fill="rgb(77,130,186)" rx="3"/>
<rect x="482" y="414" width="33" height="33" fill="rgb(77,130,186)" rx="3"/>
<rect x="516" y="414" width="33" height="33" fill="rgb(77,130,186)" rx="3"/>
<rect x="550" y="414" width="33" height="33" fill="rgb(77,130,186)" rx="3"/>
<rect x="584" y="414" width="33" height="33" fill="rgb(77,130,186)" rx="3"/>
<rect x="618" y="414" width="33" height="33" fill="rgb(77,130,186)" rx="3"/>
<rect x="652" y="414" width="33" height="33" fill="rgb(77,130,186)" rx="3"/>
<rect x="686" y="414" width="33" height="33" fill="rgb(77,130,186)" rx="3"/>
<rect x="720" y="414" width="33" height="33" fill="rgb(77,130,186)" rx="3"/>
<rect x="754" y="414" width="33" height="33" fill="rgb(77,130,186)" rx="3"/>
<rect x="788" y="414" width="33" height="33" fill="rgb(77,130,186)" rx="3"/>
<rect x="822" y="414" width="33" height="33" fill="rgb(77,130,186)" rx="3"/>
<rect x="856" y="414" width="33" height="33" fill="#202b3d" rx="3"/>
<rect x="74" y="448" width="33" height="33" fill="#202b3d" rx="3"/>
<rect x="108" y="448" width="33" height="33" fill="#202b3d" rx="3"/>
<rect x="142" y="448" width="33" height="33" fill="#202b3d" rx="3"/>
<rect x="176" y="448" width="33" height="33" fill="#202b3d" rx="3"/>
<rect x="210" y="448" width="33" height="33" fill="#202b3d" rx="3"/>
<rect x="244" y="448" width="33" height="33" fill="#202b3d" rx="3"/>
<rect x="278" y="448" width="33" height="33" fill="#202b3d" rx="3"/>
<rect x="312" y="448" width="33" height="33" fill="#202b3d" rx="3"/>
<rect x="346" y="448" width="33" height="33" fill="#202b3d" rx="3"/>
<rect x="380" y="448" width="33" height="33" fill="#202b3d" rx="3"/>
<rect x="414" y="448" width="33" height="33" fill="#202b3d" rx="3"/>
<rect x="448" y="448" width="33" height="33" fill="#202b3d" rx="3"/>
<rect x="482" y="448" width="33" height="33" fill="#202b3d" rx="3"/>
<rect x="516" y="448" width="33" height="33" fill="#202b3d" rx="3"/>
<rect x="550" y="448" width="33" height="33" fill="#202b3d" rx="3"/>
<rect x="584" y="448" width="33" height="33" fill="#202b3d" rx="3"/>
<rect x="618" y="448" width="33" height="33" fill="#202b3d" rx="3"/>
<rect x="652" y="448" width="33" height="33" fill="#202b3d" rx="3"/>
<rect x="686" y="448" width="33" height="33" fill="#202b3d" rx="3"/>
<rect x="720" y="448" width="33" height="33" fill="#202b3d" rx="3"/>
<rect x="754" y="448" width="33" height="33" fill="#202b3d" rx="3"/>
<rect x="788" y="448" width="33" height="33" fill="#202b3d" rx="3"/>
<rect x="822" y="448" width="33" height="33" fill="#202b3d" rx="3"/>
<rect x="856" y="448" width="33" height="33" fill="#202b3d" rx="3"/>
<circle cx="74" cy="524" r="7" fill="#39d98a"/><text x="88" y="529" fill="#cbd5e8" font-family="system-ui" font-size="13">exit</text>
<circle cx="162" cy="524" r="7" fill="#ff5c70"/><text x="176" y="529" fill="#cbd5e8" font-family="system-ui" font-size="13">hazard origin</text>
<text x="890" y="529" text-anchor="end" fill="#91a2bd" font-family="monospace" font-size="13">max visits: 11</text>
</svg>
